<svg xmlns="http://www.w3.org/2000/svg" xmlns:xlink="http://www.w3.org/1999/xlink" width="500" zoomAndPan="magnify" viewBox="0 0 375 374.999991" height="500" preserveAspectRatio="xMidYMid meet" version="1.0"><defs><g/><clipPath id="ea0392fb04"><path d="M 121 145 L 252 145 L 252 235 L 121 235 Z M 121 145 " clip-rule="nonzero"/></clipPath><clipPath id="ac67636ab1"><path d="M 206.082031 88.722656 L 280.570312 193.125 L 168.839844 272.839844 L 94.355469 168.4375 Z M 206.082031 88.722656 " clip-rule="nonzero"/></clipPath><clipPath id="e847ff2043"><path d="M 206.082031 88.722656 L 280.570312 193.125 L 168.839844 272.839844 L 94.355469 168.4375 Z M 206.082031 88.722656 " clip-rule="nonzero"/></clipPath><clipPath id="c59351e287"><path d="M 121 146 L 249 146 L 249 235 L 121 235 Z M 121 146 " clip-rule="nonzero"/></clipPath><clipPath id="470b95ed6f"><path d="M 206.082031 88.722656 L 280.570312 193.125 L 168.839844 272.839844 L 94.355469 168.4375 Z M 206.082031 88.722656 " clip-rule="nonzero"/></clipPath><clipPath id="30f4fd6ec1"><path d="M 206.082031 88.722656 L 280.570312 193.125 L 168.839844 272.839844 L 94.355469 168.4375 Z M 206.082031 88.722656 " clip-rule="nonzero"/></clipPath><clipPath id="3cbb1e9ac4"><path d="M 153 75.140625 L 222 75.140625 L 222 180.890625 L 153 180.890625 Z M 153 75.140625 " clip-rule="nonzero"/></clipPath></defs><g clip-path="url(#ea0392fb04)"><g clip-path="url(#ac67636ab1)"><g clip-path="url(#e847ff2043)"><path fill="#38b6ff" d="M 251.238281 169.242188 C 251.191406 161.03125 249.640625 153.113281 246.585938 145.492188 C 237.246094 169.734375 213.820312 187.019531 186.269531 187.199219 C 158.714844 187.382812 135.054688 170.40625 125.398438 146.285156 C 122.445312 153.949219 120.996094 161.886719 121.054688 170.101562 C 121.292969 206.050781 150.628906 235.003906 186.570312 234.769531 C 222.515625 234.539062 251.476562 205.191406 251.238281 169.242188 Z M 251.238281 169.242188 " fill-opacity="1" fill-rule="nonzero"/></g></g></g><g clip-path="url(#c59351e287)"><g clip-path="url(#470b95ed6f)"><g clip-path="url(#30f4fd6ec1)"><path fill="#1089b8" d="M 248.050781 189.796875 C 241.835938 197 234.460938 202.707031 225.921875 206.910156 C 191.324219 224.007812 149.542969 210.082031 132.601562 175.808594 C 130.34375 171.257812 128.617188 166.515625 127.417969 161.578125 C 126.222656 156.640625 125.582031 151.632812 125.5 146.554688 C 125.464844 146.46875 125.425781 146.378906 125.390625 146.292969 C 122.433594 153.957031 120.984375 161.894531 121.042969 170.109375 C 121.28125 206.058594 150.617188 235.011719 186.5625 234.777344 C 215.347656 234.582031 239.621094 215.738281 248.050781 189.796875 Z M 248.050781 189.796875 " fill-opacity="1" fill-rule="nonzero"/></g></g></g><g clip-path="url(#3cbb1e9ac4)"><path fill="#00afef" d="M 187.46875 75.339844 C 186.144531 85.523438 182.386719 95.382812 176.589844 103.859375 C 172.988281 109.128906 168.644531 113.835938 164.636719 118.800781 C 160.632812 123.769531 156.910156 129.097656 154.832031 135.128906 C 151.285156 145.441406 153.0625 157.429688 159.425781 166.285156 C 165.789062 175.144531 176.5625 180.648438 187.46875 180.648438 C 198.375 180.648438 209.148438 175.144531 215.511719 166.285156 C 221.875 157.429688 223.652344 145.441406 220.105469 135.128906 C 218.027344 129.097656 214.304688 123.769531 210.300781 118.800781 C 206.292969 113.835938 201.949219 109.128906 198.347656 103.859375 C 192.550781 95.382812 188.792969 85.523438 187.46875 75.339844 Z M 187.46875 75.339844 " fill-opacity="1" fill-rule="nonzero"/></g><path fill="#ffffff" d="M 176.335938 114.164062 C 175.441406 114.839844 174.585938 115.566406 173.773438 116.339844 C 174.601562 115.585938 175.457031 114.859375 176.335938 114.164062 Z M 173.773438 116.339844 C 169.183594 120.507812 165.363281 125.527344 162.585938 131.074219 C 159.585938 137.0625 157.785156 143.816406 158.554688 150.472656 C 159.261719 156.621094 162.210938 162.492188 166.722656 166.730469 L 172.171875 159.511719 C 169.535156 156.625 167.453125 153.230469 166.078125 149.570312 C 163.761719 143.40625 163.492188 136.488281 165.328125 130.164062 C 166.847656 124.914062 169.808594 120.097656 173.773438 116.339844 Z M 173.566406 160.761719 L 168.144531 168.019531 C 169.339844 169.457031 170.671875 170.777344 172.125 171.957031 C 173.214844 172.84375 174.375 173.652344 175.585938 174.375 L 181.746094 166.632812 C 179.191406 165.207031 176.777344 163.53125 174.554688 161.628906 C 174.222656 161.34375 173.890625 161.054688 173.566406 160.761719 Z M 173.566406 160.761719 " fill-opacity="1" fill-rule="nonzero"/><g fill="#0071bc" fill-opacity="1"><g transform="translate(98.289355, 283.247657)"><g><path d="M 5.09375 -10.921875 C 6.488281 -10.921875 7.1875 -10.175781 7.1875 -8.6875 L 7.1875 -6.515625 C 7.1875 -5.023438 6.488281 -4.28125 5.09375 -4.28125 L 3.1875 -4.28125 L 3.1875 0 L 0.828125 0 L 0.828125 -10.921875 Z M 4.828125 -6.25 L 4.828125 -8.953125 C 4.828125 -9.046875 4.796875 -9.125 4.734375 -9.1875 C 4.671875 -9.257812 4.59375 -9.296875 4.5 -9.296875 L 3.1875 -9.296875 L 3.1875 -5.90625 L 4.5 -5.90625 C 4.59375 -5.90625 4.671875 -5.9375 4.734375 -6 C 4.796875 -6.070312 4.828125 -6.15625 4.828125 -6.25 Z M 4.828125 -6.25 "/></g></g></g><g fill="#0071bc" fill-opacity="1"><g transform="translate(109.571095, 283.247657)"><g><path d="M 3.203125 -4.46875 L 3.203125 0 L 0.84375 0 L 0.84375 -10.921875 L 5.046875 -10.921875 C 6.441406 -10.921875 7.140625 -10.175781 7.140625 -8.6875 L 7.140625 -7.421875 C 7.140625 -6.523438 6.816406 -5.953125 6.171875 -5.703125 C 6.734375 -5.503906 7.015625 -5.039062 7.015625 -4.3125 L 7.015625 0 L 4.65625 0 L 4.65625 -4.140625 C 4.65625 -4.359375 4.550781 -4.46875 4.34375 -4.46875 Z M 3.203125 -9.3125 L 3.203125 -6.125 L 4.453125 -6.125 C 4.546875 -6.125 4.625 -6.15625 4.6875 -6.21875 C 4.75 -6.289062 4.78125 -6.375 4.78125 -6.46875 L 4.78125 -8.984375 C 4.78125 -9.066406 4.75 -9.140625 4.6875 -9.203125 C 4.625 -9.273438 4.546875 -9.3125 4.453125 -9.3125 Z M 3.203125 -9.3125 "/></g></g></g><g fill="#0071bc" fill-opacity="1"><g transform="translate(121.139459, 283.247657)"><g><path d="M 3.203125 -1.953125 L 5.828125 -1.953125 L 5.828125 0 L 0.84375 0 L 0.84375 -10.921875 L 5.828125 -10.921875 L 5.828125 -9 L 3.203125 -9 L 3.203125 -6.421875 L 5.65625 -6.421875 L 5.65625 -4.578125 L 3.203125 -4.578125 Z M 3.203125 -1.953125 "/></g></g></g><g fill="#0071bc" fill-opacity="1"><g transform="translate(131.240965, 283.247657)"><g><path d="M 6.90625 -8.046875 L 4.65625 -8.046875 L 4.65625 -8.90625 C 4.65625 -9 4.625 -9.078125 4.5625 -9.140625 C 4.5 -9.210938 4.425781 -9.25 4.34375 -9.25 L 3.40625 -9.25 C 3.320312 -9.25 3.25 -9.210938 3.1875 -9.140625 C 3.125 -9.078125 3.09375 -9 3.09375 -8.90625 L 3.09375 -6.96875 C 3.09375 -6.875 3.125 -6.789062 3.1875 -6.71875 C 3.25 -6.65625 3.320312 -6.625 3.40625 -6.625 L 4.921875 -6.625 C 6.316406 -6.601562 7.015625 -5.863281 7.015625 -4.40625 L 7.015625 -2.0625 C 7.015625 -0.570312 6.316406 0.171875 4.921875 0.171875 L 2.9375 0.171875 C 1.539062 0.171875 0.84375 -0.570312 0.84375 -2.0625 L 0.84375 -3.1875 L 3.09375 -3.1875 L 3.09375 -1.96875 C 3.09375 -1.882812 3.125 -1.804688 3.1875 -1.734375 C 3.25 -1.671875 3.320312 -1.640625 3.40625 -1.640625 L 4.453125 -1.640625 C 4.546875 -1.640625 4.625 -1.671875 4.6875 -1.734375 C 4.75 -1.804688 4.78125 -1.882812 4.78125 -1.96875 L 4.78125 -4.125 C 4.78125 -4.207031 4.75 -4.28125 4.6875 -4.34375 C 4.625 -4.414062 4.546875 -4.453125 4.453125 -4.453125 L 2.9375 -4.453125 C 1.539062 -4.453125 0.84375 -5.195312 0.84375 -6.6875 L 0.84375 -8.859375 C 0.84375 -10.347656 1.539062 -11.09375 2.9375 -11.09375 L 4.8125 -11.09375 C 6.207031 -11.09375 6.90625 -10.347656 6.90625 -8.859375 Z M 6.90625 -8.046875 "/></g></g></g><g fill="#0071bc" fill-opacity="1"><g transform="translate(142.72503, 283.247657)"><g><path d="M 6.90625 -8.046875 L 4.65625 -8.046875 L 4.65625 -8.90625 C 4.65625 -9 4.625 -9.078125 4.5625 -9.140625 C 4.5 -9.210938 4.425781 -9.25 4.34375 -9.25 L 3.40625 -9.25 C 3.320312 -9.25 3.25 -9.210938 3.1875 -9.140625 C 3.125 -9.078125 3.09375 -9 3.09375 -8.90625 L 3.09375 -6.96875 C 3.09375 -6.875 3.125 -6.789062 3.1875 -6.71875 C 3.25 -6.65625 3.320312 -6.625 3.40625 -6.625 L 4.921875 -6.625 C 6.316406 -6.601562 7.015625 -5.863281 7.015625 -4.40625 L 7.015625 -2.0625 C 7.015625 -0.570312 6.316406 0.171875 4.921875 0.171875 L 2.9375 0.171875 C 1.539062 0.171875 0.84375 -0.570312 0.84375 -2.0625 L 0.84375 -3.1875 L 3.09375 -3.1875 L 3.09375 -1.96875 C 3.09375 -1.882812 3.125 -1.804688 3.1875 -1.734375 C 3.25 -1.671875 3.320312 -1.640625 3.40625 -1.640625 L 4.453125 -1.640625 C 4.546875 -1.640625 4.625 -1.671875 4.6875 -1.734375 C 4.75 -1.804688 4.78125 -1.882812 4.78125 -1.96875 L 4.78125 -4.125 C 4.78125 -4.207031 4.75 -4.28125 4.6875 -4.34375 C 4.625 -4.414062 4.546875 -4.453125 4.453125 -4.453125 L 2.9375 -4.453125 C 1.539062 -4.453125 0.84375 -5.195312 0.84375 -6.6875 L 0.84375 -8.859375 C 0.84375 -10.347656 1.539062 -11.09375 2.9375 -11.09375 L 4.8125 -11.09375 C 6.207031 -11.09375 6.90625 -10.347656 6.90625 -8.859375 Z M 6.90625 -8.046875 "/></g></g></g><g fill="#0071bc" fill-opacity="1"><g transform="translate(154.209092, 283.247657)"><g><path d="M 4.734375 -10.921875 L 7.109375 -10.921875 L 7.109375 -2.0625 C 7.109375 -0.570312 6.410156 0.171875 5.015625 0.171875 L 2.921875 0.171875 C 1.523438 0.171875 0.828125 -0.570312 0.828125 -2.0625 L 0.828125 -10.921875 L 3.1875 -10.921875 L 3.1875 -1.859375 C 3.1875 -1.765625 3.21875 -1.679688 3.28125 -1.609375 C 3.34375 -1.546875 3.421875 -1.515625 3.515625 -1.515625 L 4.421875 -1.515625 C 4.515625 -1.515625 4.585938 -1.546875 4.640625 -1.609375 C 4.703125 -1.679688 4.734375 -1.765625 4.734375 -1.859375 Z M 4.734375 -10.921875 "/></g></g></g><g fill="#0071bc" fill-opacity="1"><g transform="translate(165.844897, 283.247657)"><g><path d="M 3.203125 -4.46875 L 3.203125 0 L 0.84375 0 L 0.84375 -10.921875 L 5.046875 -10.921875 C 6.441406 -10.921875 7.140625 -10.175781 7.140625 -8.6875 L 7.140625 -7.421875 C 7.140625 -6.523438 6.816406 -5.953125 6.171875 -5.703125 C 6.734375 -5.503906 7.015625 -5.039062 7.015625 -4.3125 L 7.015625 0 L 4.65625 0 L 4.65625 -4.140625 C 4.65625 -4.359375 4.550781 -4.46875 4.34375 -4.46875 Z M 3.203125 -9.3125 L 3.203125 -6.125 L 4.453125 -6.125 C 4.546875 -6.125 4.625 -6.15625 4.6875 -6.21875 C 4.75 -6.289062 4.78125 -6.375 4.78125 -6.46875 L 4.78125 -8.984375 C 4.78125 -9.066406 4.75 -9.140625 4.6875 -9.203125 C 4.625 -9.273438 4.546875 -9.3125 4.453125 -9.3125 Z M 3.203125 -9.3125 "/></g></g></g><g fill="#0071bc" fill-opacity="1"><g transform="translate(177.413258, 283.247657)"><g><path d="M 3.203125 -1.953125 L 5.828125 -1.953125 L 5.828125 0 L 0.84375 0 L 0.84375 -10.921875 L 5.828125 -10.921875 L 5.828125 -9 L 3.203125 -9 L 3.203125 -6.421875 L 5.65625 -6.421875 L 5.65625 -4.578125 L 3.203125 -4.578125 Z M 3.203125 -1.953125 "/></g></g></g><g fill="#0071bc" fill-opacity="1"><g transform="translate(187.514762, 283.247657)"><g/></g></g><g fill="#0071bc" fill-opacity="1"><g transform="translate(194.682537, 283.247657)"><g><path d="M 4.90625 -1.78125 L 4.90625 -3.46875 L 7.15625 -3.46875 L 7.15625 -2.0625 C 7.15625 -0.570312 6.457031 0.171875 5.0625 0.171875 L 2.9375 0.171875 C 1.539062 0.171875 0.84375 -0.570312 0.84375 -2.0625 L 0.84375 -8.859375 C 0.84375 -10.347656 1.539062 -11.09375 2.9375 -11.09375 L 5.0625 -11.09375 C 6.457031 -11.09375 7.15625 -10.347656 7.15625 -8.859375 L 7.15625 -7.828125 L 4.90625 -7.828125 L 4.90625 -9.140625 C 4.90625 -9.234375 4.875 -9.3125 4.8125 -9.375 C 4.75 -9.445312 4.675781 -9.484375 4.59375 -9.484375 L 3.53125 -9.484375 C 3.4375 -9.484375 3.359375 -9.445312 3.296875 -9.375 C 3.234375 -9.3125 3.203125 -9.234375 3.203125 -9.140625 L 3.203125 -1.78125 C 3.203125 -1.695312 3.234375 -1.617188 3.296875 -1.546875 C 3.359375 -1.484375 3.4375 -1.453125 3.53125 -1.453125 L 4.59375 -1.453125 C 4.675781 -1.453125 4.75 -1.484375 4.8125 -1.546875 C 4.875 -1.617188 4.90625 -1.695312 4.90625 -1.78125 Z M 4.90625 -1.78125 "/></g></g></g><g fill="#0071bc" fill-opacity="1"><g transform="translate(206.166599, 283.247657)"><g><path d="M 3.203125 -1.984375 L 5.78125 -1.984375 L 5.78125 0 L 0.84375 0 L 0.84375 -10.921875 L 3.203125 -10.921875 Z M 3.203125 -1.984375 "/></g></g></g><g fill="#0071bc" fill-opacity="1"><g transform="translate(215.981472, 283.247657)"><g><path d="M 3.203125 -1.953125 L 5.828125 -1.953125 L 5.828125 0 L 0.84375 0 L 0.84375 -10.921875 L 5.828125 -10.921875 L 5.828125 -9 L 3.203125 -9 L 3.203125 -6.421875 L 5.65625 -6.421875 L 5.65625 -4.578125 L 3.203125 -4.578125 Z M 3.203125 -1.953125 "/></g></g></g><g fill="#0071bc" fill-opacity="1"><g transform="translate(226.082976, 283.247657)"><g><path d="M 5.1875 -11.09375 C 6.570312 -11.09375 7.265625 -10.347656 7.265625 -8.859375 L 7.265625 0 L 4.90625 0 L 4.90625 -3.65625 L 3.203125 -3.65625 L 3.203125 0 L 0.84375 0 L 0.84375 -8.859375 C 0.84375 -10.347656 1.539062 -11.09375 2.9375 -11.09375 Z M 3.203125 -5.484375 L 4.90625 -5.484375 L 4.90625 -9.140625 C 4.90625 -9.234375 4.875 -9.3125 4.8125 -9.375 C 4.75 -9.445312 4.675781 -9.484375 4.59375 -9.484375 L 3.53125 -9.484375 C 3.4375 -9.484375 3.359375 -9.445312 3.296875 -9.375 C 3.234375 -9.3125 3.203125 -9.234375 3.203125 -9.140625 Z M 3.203125 -5.484375 "/></g></g></g><g fill="#0071bc" fill-opacity="1"><g transform="translate(238.022267, 283.247657)"><g><path d="M 7.109375 0 L 4.734375 0 L 4.734375 -9.0625 C 4.734375 -9.15625 4.703125 -9.234375 4.640625 -9.296875 C 4.585938 -9.367188 4.515625 -9.40625 4.421875 -9.40625 L 3.515625 -9.40625 C 3.421875 -9.40625 3.34375 -9.367188 3.28125 -9.296875 C 3.21875 -9.234375 3.1875 -9.15625 3.1875 -9.0625 L 3.1875 0 L 0.828125 0 L 0.828125 -8.859375 C 0.828125 -10.347656 1.523438 -11.09375 2.921875 -11.09375 L 5.015625 -11.09375 C 6.410156 -11.09375 7.109375 -10.347656 7.109375 -8.859375 Z M 7.109375 0 "/></g></g></g><g fill="#0071bc" fill-opacity="1"><g transform="translate(249.624355, 283.247657)"><g><path d="M 3.203125 -10.921875 L 3.203125 0 L 0.84375 0 L 0.84375 -10.921875 Z M 3.203125 -10.921875 "/></g></g></g><g fill="#0071bc" fill-opacity="1"><g transform="translate(257.500271, 283.247657)"><g><path d="M 7.109375 0 L 4.734375 0 L 4.734375 -9.0625 C 4.734375 -9.15625 4.703125 -9.234375 4.640625 -9.296875 C 4.585938 -9.367188 4.515625 -9.40625 4.421875 -9.40625 L 3.515625 -9.40625 C 3.421875 -9.40625 3.34375 -9.367188 3.28125 -9.296875 C 3.21875 -9.234375 3.1875 -9.15625 3.1875 -9.0625 L 3.1875 0 L 0.828125 0 L 0.828125 -8.859375 C 0.828125 -10.347656 1.523438 -11.09375 2.921875 -11.09375 L 5.015625 -11.09375 C 6.410156 -11.09375 7.109375 -10.347656 7.109375 -8.859375 Z M 7.109375 0 "/></g></g></g><g fill="#0071bc" fill-opacity="1"><g transform="translate(269.102358, 283.247657)"><g><path d="M 4.03125 -4.34375 L 4.03125 -6.078125 L 7.15625 -6.078125 L 7.15625 -2.0625 C 7.15625 -0.570312 6.457031 0.171875 5.0625 0.171875 L 2.9375 0.171875 C 1.539062 0.171875 0.84375 -0.570312 0.84375 -2.0625 L 0.84375 -8.859375 C 0.84375 -10.347656 1.539062 -11.09375 2.9375 -11.09375 L 5.0625 -11.09375 C 6.457031 -11.09375 7.15625 -10.347656 7.15625 -8.859375 L 7.15625 -7.828125 L 4.90625 -7.828125 L 4.90625 -9.140625 C 4.90625 -9.234375 4.875 -9.3125 4.8125 -9.375 C 4.75 -9.445312 4.675781 -9.484375 4.59375 -9.484375 L 3.53125 -9.484375 C 3.4375 -9.484375 3.359375 -9.445312 3.296875 -9.375 C 3.234375 -9.3125 3.203125 -9.234375 3.203125 -9.140625 L 3.203125 -1.78125 C 3.203125 -1.695312 3.234375 -1.617188 3.296875 -1.546875 C 3.359375 -1.484375 3.4375 -1.453125 3.53125 -1.453125 L 4.59375 -1.453125 C 4.675781 -1.453125 4.75 -1.484375 4.8125 -1.546875 C 4.875 -1.617188 4.90625 -1.695312 4.90625 -1.78125 L 4.90625 -4.34375 Z M 4.03125 -4.34375 "/></g></g></g><g fill="#0071bc" fill-opacity="1"><g transform="translate(73.89878, 262.573001)"><g><path d="M 10.78125 -17.875 L 10.78125 -5.515625 C 10.78125 -3.722656 10.285156 -2.332031 9.296875 -1.34375 C 8.304688 -0.363281 6.945312 0.125 5.21875 0.125 C 3.101562 0.125 1.347656 -0.734375 -0.046875 -2.453125 L 1.375 -4.75 C 2.582031 -3.4375 3.851562 -2.78125 5.1875 -2.78125 C 6 -2.78125 6.625 -3.019531 7.0625 -3.5 C 7.507812 -3.988281 7.734375 -4.695312 7.734375 -5.625 L 7.734375 -15.171875 L 1.5625 -15.171875 L 1.5625 -17.875 Z M 10.78125 -17.875 "/></g></g></g><g fill="#0071bc" fill-opacity="1"><g transform="translate(92.802417, 262.573001)"><g><path d="M 2.78125 -17.875 C 3.207031 -17.875 3.570312 -17.722656 3.875 -17.421875 C 4.1875 -17.128906 4.34375 -16.738281 4.34375 -16.25 C 4.34375 -15.800781 4.191406 -15.359375 3.890625 -14.921875 L 2.421875 -12.71875 L 0.921875 -12.71875 L 1.890625 -14.921875 C 1.429688 -15.222656 1.203125 -15.664062 1.203125 -16.25 C 1.203125 -16.726562 1.347656 -17.117188 1.640625 -17.421875 C 1.941406 -17.722656 2.320312 -17.875 2.78125 -17.875 Z M 2.78125 -17.875 "/></g></g></g><g fill="#0071bc" fill-opacity="1"><g transform="translate(104.426968, 262.573001)"><g><path d="M 8.21875 -18.015625 C 10.539062 -18.015625 12.628906 -17.398438 14.484375 -16.171875 L 13.234375 -13.515625 C 11.410156 -14.617188 9.664062 -15.171875 8 -15.171875 C 7.09375 -15.171875 6.378906 -15.007812 5.859375 -14.6875 C 5.335938 -14.363281 5.078125 -13.90625 5.078125 -13.3125 C 5.078125 -12.71875 5.316406 -12.207031 5.796875 -11.78125 C 6.273438 -11.363281 6.867188 -11.054688 7.578125 -10.859375 C 8.296875 -10.671875 9.070312 -10.425781 9.90625 -10.125 C 10.738281 -9.832031 11.515625 -9.519531 12.234375 -9.1875 C 12.953125 -8.851562 13.546875 -8.332031 14.015625 -7.625 C 14.484375 -6.914062 14.71875 -6.0625 14.71875 -5.0625 C 14.71875 -3.488281 14.085938 -2.234375 12.828125 -1.296875 C 11.578125 -0.359375 9.957031 0.109375 7.96875 0.109375 C 6.601562 0.109375 5.28125 -0.144531 4 -0.65625 C 2.726562 -1.175781 1.617188 -1.867188 0.671875 -2.734375 L 1.96875 -5.34375 C 2.875 -4.507812 3.863281 -3.863281 4.9375 -3.40625 C 6.019531 -2.957031 7.046875 -2.734375 8.015625 -2.734375 C 9.078125 -2.734375 9.898438 -2.925781 10.484375 -3.3125 C 11.078125 -3.695312 11.375 -4.226562 11.375 -4.90625 C 11.375 -5.519531 11.132812 -6.035156 10.65625 -6.453125 C 10.175781 -6.867188 9.578125 -7.171875 8.859375 -7.359375 C 8.148438 -7.554688 7.375 -7.796875 6.53125 -8.078125 C 5.695312 -8.359375 4.921875 -8.65625 4.203125 -8.96875 C 3.492188 -9.289062 2.898438 -9.800781 2.421875 -10.5 C 1.953125 -11.195312 1.71875 -12.039062 1.71875 -13.03125 C 1.71875 -14.539062 2.3125 -15.75 3.5 -16.65625 C 4.6875 -17.5625 6.257812 -18.015625 8.21875 -18.015625 Z M 8.21875 -18.015625 "/></g></g></g><g fill="#0071bc" fill-opacity="1"><g transform="translate(126.472095, 262.573001)"><g/></g></g><g fill="#0071bc" fill-opacity="1"><g transform="translate(139.220434, 262.573001)"><g><path d="M 2.34375 -17.875 L 9.484375 -17.875 C 11.722656 -17.875 13.457031 -17.34375 14.6875 -16.28125 C 15.925781 -15.21875 16.546875 -13.71875 16.546875 -11.78125 C 16.546875 -9.75 15.925781 -8.175781 14.6875 -7.0625 C 13.457031 -5.945312 11.722656 -5.390625 9.484375 -5.390625 L 5.359375 -5.390625 L 5.359375 0 L 2.34375 0 Z M 5.359375 -15.171875 L 5.359375 -8.09375 L 9.34375 -8.09375 C 12.226562 -8.09375 13.671875 -9.296875 13.671875 -11.703125 C 13.671875 -14.015625 12.226562 -15.171875 9.34375 -15.171875 Z M 5.359375 -15.171875 "/></g></g></g><g fill="#0071bc" fill-opacity="1"><g transform="translate(162.56814, 262.573001)"><g><path d="M 13.6875 0 L 10.421875 -5.421875 C 10.253906 -5.398438 9.984375 -5.390625 9.609375 -5.390625 L 5.359375 -5.390625 L 5.359375 0 L 2.34375 0 L 2.34375 -17.875 L 9.609375 -17.875 C 11.890625 -17.875 13.660156 -17.34375 14.921875 -16.28125 C 16.179688 -15.21875 16.8125 -13.71875 16.8125 -11.78125 C 16.8125 -10.34375 16.488281 -9.128906 15.84375 -8.140625 C 15.207031 -7.160156 14.296875 -6.441406 13.109375 -5.984375 L 17.109375 0 Z M 5.359375 -8.09375 L 9.609375 -8.09375 C 12.503906 -8.09375 13.953125 -9.296875 13.953125 -11.703125 C 13.953125 -14.015625 12.503906 -15.171875 9.609375 -15.171875 L 5.359375 -15.171875 Z M 5.359375 -8.09375 "/></g></g></g><g fill="#0071bc" fill-opacity="1"><g transform="translate(187.192878, 262.573001)"><g><path d="M 5.359375 0 L 2.34375 0 L 2.34375 -17.875 L 5.359375 -17.875 Z M 5.359375 0 "/></g></g></g><g fill="#0071bc" fill-opacity="1"><g transform="translate(201.065011, 262.573001)"><g><path d="M 8.21875 -18.015625 C 10.539062 -18.015625 12.628906 -17.398438 14.484375 -16.171875 L 13.234375 -13.515625 C 11.410156 -14.617188 9.664062 -15.171875 8 -15.171875 C 7.09375 -15.171875 6.378906 -15.007812 5.859375 -14.6875 C 5.335938 -14.363281 5.078125 -13.90625 5.078125 -13.3125 C 5.078125 -12.71875 5.316406 -12.207031 5.796875 -11.78125 C 6.273438 -11.363281 6.867188 -11.054688 7.578125 -10.859375 C 8.296875 -10.671875 9.070312 -10.425781 9.90625 -10.125 C 10.738281 -9.832031 11.515625 -9.519531 12.234375 -9.1875 C 12.953125 -8.851562 13.546875 -8.332031 14.015625 -7.625 C 14.484375 -6.914062 14.71875 -6.0625 14.71875 -5.0625 C 14.71875 -3.488281 14.085938 -2.234375 12.828125 -1.296875 C 11.578125 -0.359375 9.957031 0.109375 7.96875 0.109375 C 6.601562 0.109375 5.28125 -0.144531 4 -0.65625 C 2.726562 -1.175781 1.617188 -1.867188 0.671875 -2.734375 L 1.96875 -5.34375 C 2.875 -4.507812 3.863281 -3.863281 4.9375 -3.40625 C 6.019531 -2.957031 7.046875 -2.734375 8.015625 -2.734375 C 9.078125 -2.734375 9.898438 -2.925781 10.484375 -3.3125 C 11.078125 -3.695312 11.375 -4.226562 11.375 -4.90625 C 11.375 -5.519531 11.132812 -6.035156 10.65625 -6.453125 C 10.175781 -6.867188 9.578125 -7.171875 8.859375 -7.359375 C 8.148438 -7.554688 7.375 -7.796875 6.53125 -8.078125 C 5.695312 -8.359375 4.921875 -8.65625 4.203125 -8.96875 C 3.492188 -9.289062 2.898438 -9.800781 2.421875 -10.5 C 1.953125 -11.195312 1.71875 -12.039062 1.71875 -13.03125 C 1.71875 -14.539062 2.3125 -15.75 3.5 -16.65625 C 4.6875 -17.5625 6.257812 -18.015625 8.21875 -18.015625 Z M 8.21875 -18.015625 "/></g></g></g><g fill="#0071bc" fill-opacity="1"><g transform="translate(223.110144, 262.573001)"><g><path d="M 14.5625 -15.171875 L 8.890625 -15.171875 L 8.890625 0 L 5.875 0 L 5.875 -15.171875 L 0.234375 -15.171875 L 0.234375 -17.875 L 14.5625 -17.875 Z M 14.5625 -15.171875 "/></g></g></g><g fill="#0071bc" fill-opacity="1"><g transform="translate(244.057038, 262.573001)"><g><path d="M 5.359375 0 L 2.34375 0 L 2.34375 -17.875 L 5.359375 -17.875 Z M 5.359375 0 "/></g></g></g><g fill="#0071bc" fill-opacity="1"><g transform="translate(257.929171, 262.573001)"><g><path d="M 17.859375 0 L 14.890625 0 L 5.359375 -12.828125 L 5.359375 0 L 2.34375 0 L 2.34375 -17.875 L 5.3125 -17.875 L 14.890625 -5.03125 L 14.890625 -17.875 L 17.859375 -17.875 Z M 17.859375 0 "/></g></g></g><g fill="#0071bc" fill-opacity="1"><g transform="translate(284.316198, 262.573001)"><g><path d="M 15.125 -15.171875 L 5.359375 -15.171875 L 5.359375 -10.34375 L 14.109375 -10.34375 L 14.109375 -7.640625 L 5.359375 -7.640625 L 5.359375 -2.703125 L 15.4375 -2.703125 L 15.4375 0 L 2.34375 0 L 2.34375 -17.875 L 15.125 -17.875 Z M 15.125 -15.171875 "/></g></g></g></svg>